%TF.GenerationSoftware,KiCad,Pcbnew,7.0.5*%
%TF.CreationDate,2024-01-14T19:57:34+08:00*%
%TF.ProjectId,encoder,656e636f-6465-4722-9e6b-696361645f70,rev?*%
%TF.SameCoordinates,Original*%
%TF.FileFunction,Copper,L1,Top*%
%TF.FilePolarity,Positive*%
%FSLAX46Y46*%
G04 Gerber Fmt 4.6, Leading zero omitted, Abs format (unit mm)*
G04 Created by KiCad (PCBNEW 7.0.5) date 2024-01-14 19:57:34*
%MOMM*%
%LPD*%
G01*
G04 APERTURE LIST*
G04 Aperture macros list*
%AMRoundRect*
0 Rectangle with rounded corners*
0 $1 Rounding radius*
0 $2 $3 $4 $5 $6 $7 $8 $9 X,Y pos of 4 corners*
0 Add a 4 corners polygon primitive as box body*
4,1,4,$2,$3,$4,$5,$6,$7,$8,$9,$2,$3,0*
0 Add four circle primitives for the rounded corners*
1,1,$1+$1,$2,$3*
1,1,$1+$1,$4,$5*
1,1,$1+$1,$6,$7*
1,1,$1+$1,$8,$9*
0 Add four rect primitives between the rounded corners*
20,1,$1+$1,$2,$3,$4,$5,0*
20,1,$1+$1,$4,$5,$6,$7,0*
20,1,$1+$1,$6,$7,$8,$9,0*
20,1,$1+$1,$8,$9,$2,$3,0*%
G04 Aperture macros list end*
%TA.AperFunction,SMDPad,CuDef*%
%ADD10RoundRect,0.237500X0.300000X0.237500X-0.300000X0.237500X-0.300000X-0.237500X0.300000X-0.237500X0*%
%TD*%
%TA.AperFunction,ComponentPad*%
%ADD11R,1.700000X1.700000*%
%TD*%
%TA.AperFunction,ComponentPad*%
%ADD12O,1.700000X1.700000*%
%TD*%
%TA.AperFunction,SMDPad,CuDef*%
%ADD13R,1.710000X0.600000*%
%TD*%
%TA.AperFunction,SMDPad,CuDef*%
%ADD14R,2.550000X1.200000*%
%TD*%
%TA.AperFunction,ComponentPad*%
%ADD15O,4.000000X12.000000*%
%TD*%
%TA.AperFunction,ComponentPad*%
%ADD16O,12.000000X4.000000*%
%TD*%
%TA.AperFunction,ComponentPad*%
%ADD17C,3.400000*%
%TD*%
%TA.AperFunction,ConnectorPad*%
%ADD18C,6.000000*%
%TD*%
%TA.AperFunction,SMDPad,CuDef*%
%ADD19RoundRect,0.237500X-0.237500X0.300000X-0.237500X-0.300000X0.237500X-0.300000X0.237500X0.300000X0*%
%TD*%
%TA.AperFunction,SMDPad,CuDef*%
%ADD20RoundRect,0.237500X0.044194X0.380070X-0.380070X-0.044194X-0.044194X-0.380070X0.380070X0.044194X0*%
%TD*%
%TA.AperFunction,SMDPad,CuDef*%
%ADD21RoundRect,0.237500X0.237500X-0.300000X0.237500X0.300000X-0.237500X0.300000X-0.237500X-0.300000X0*%
%TD*%
%TA.AperFunction,SMDPad,CuDef*%
%ADD22RoundRect,0.250000X-0.475000X0.337500X-0.475000X-0.337500X0.475000X-0.337500X0.475000X0.337500X0*%
%TD*%
%TA.AperFunction,SMDPad,CuDef*%
%ADD23R,0.700000X1.750000*%
%TD*%
%TA.AperFunction,SMDPad,CuDef*%
%ADD24R,1.200000X2.550000*%
%TD*%
%TA.AperFunction,SMDPad,CuDef*%
%ADD25RoundRect,0.237500X-0.300000X-0.237500X0.300000X-0.237500X0.300000X0.237500X-0.300000X0.237500X0*%
%TD*%
%TA.AperFunction,SMDPad,CuDef*%
%ADD26O,1.950000X0.568000*%
%TD*%
%TA.AperFunction,ViaPad*%
%ADD27C,0.500000*%
%TD*%
%TA.AperFunction,ViaPad*%
%ADD28C,1.000000*%
%TD*%
%TA.AperFunction,Conductor*%
%ADD29C,0.600000*%
%TD*%
%TA.AperFunction,Conductor*%
%ADD30C,0.300000*%
%TD*%
G04 APERTURE END LIST*
D10*
%TO.P,R1,1*%
%TO.N,Net-(U2-PGO)*%
X141762500Y-77400000D03*
%TO.P,R1,2*%
%TO.N,GND*%
X140037500Y-77400000D03*
%TD*%
D11*
%TO.P,J2,1,Pin_1*%
%TO.N,/C*%
X160700000Y-63260000D03*
D12*
%TO.P,J2,2,Pin_2*%
%TO.N,/B*%
X160700000Y-65800000D03*
%TO.P,J2,3,Pin_3*%
%TO.N,/A*%
X160700000Y-68340000D03*
%TD*%
D13*
%TO.P,J6,1,Pin_1*%
%TO.N,/W*%
X119220000Y-64500000D03*
%TO.P,J6,2,Pin_2*%
%TO.N,/V*%
X119220000Y-63500000D03*
%TO.P,J6,3,Pin_3*%
%TO.N,/U*%
X119220000Y-62500000D03*
D14*
%TO.P,J6,4*%
%TO.N,N/C*%
X122960000Y-61390000D03*
%TO.P,J6,5*%
X122960000Y-65610000D03*
%TD*%
D15*
%TO.P,H2,1*%
%TO.N,N/C*%
X140800000Y-86000000D03*
%TD*%
D16*
%TO.P,H4,1*%
%TO.N,N/C*%
X153100000Y-73400000D03*
%TD*%
D17*
%TO.P,H8,1*%
%TO.N,N/C*%
X159000000Y-55600000D03*
D18*
X159000000Y-55600000D03*
%TD*%
D19*
%TO.P,R2,1*%
%TO.N,VDD*%
X145700000Y-71137500D03*
%TO.P,R2,2*%
%TO.N,/SCL*%
X145700000Y-72862500D03*
%TD*%
D13*
%TO.P,J5,1,Pin_1*%
%TO.N,/W*%
X123480000Y-81900000D03*
%TO.P,J5,2,Pin_2*%
%TO.N,/V*%
X123480000Y-82900000D03*
%TO.P,J5,3,Pin_3*%
%TO.N,/U*%
X123480000Y-83900000D03*
D14*
%TO.P,J5,4*%
%TO.N,N/C*%
X119740000Y-85010000D03*
%TO.P,J5,5*%
X119740000Y-80790000D03*
%TD*%
D15*
%TO.P,H3,1*%
%TO.N,N/C*%
X140800000Y-61375000D03*
%TD*%
D16*
%TO.P,H1,1*%
%TO.N,N/C*%
X128475000Y-73700000D03*
%TD*%
D20*
%TO.P,R4,1*%
%TO.N,VDD*%
X137209880Y-70190120D03*
%TO.P,R4,2*%
%TO.N,+3V3*%
X135990120Y-71409880D03*
%TD*%
D21*
%TO.P,R3,1*%
%TO.N,VDD*%
X145600000Y-76362500D03*
%TO.P,R3,2*%
%TO.N,/SDA*%
X145600000Y-74637500D03*
%TD*%
D17*
%TO.P,H5,1*%
%TO.N,N/C*%
X121800000Y-55800000D03*
D18*
X121800000Y-55800000D03*
%TD*%
D22*
%TO.P,C2,1*%
%TO.N,+3V3*%
X135600000Y-73362500D03*
%TO.P,C2,2*%
%TO.N,GND*%
X135600000Y-75437500D03*
%TD*%
D17*
%TO.P,H7,1*%
%TO.N,N/C*%
X158900000Y-94800000D03*
D18*
X158900000Y-94800000D03*
%TD*%
D23*
%TO.P,J4,1,Pin_1*%
%TO.N,VDD*%
X139400000Y-93309500D03*
%TO.P,J4,2,Pin_2*%
%TO.N,/SCL*%
X140400000Y-93309500D03*
%TO.P,J4,3,Pin_3*%
%TO.N,/SDA*%
X141400000Y-93309500D03*
%TO.P,J4,4,Pin_4*%
%TO.N,GND*%
X142400000Y-93309500D03*
D24*
%TO.P,J4,5*%
%TO.N,N/C*%
X138290000Y-97049500D03*
%TO.P,J4,6*%
X143510000Y-97049500D03*
%TD*%
D25*
%TO.P,C1,1*%
%TO.N,VDD*%
X139137500Y-70100000D03*
%TO.P,C1,2*%
%TO.N,GND*%
X140862500Y-70100000D03*
%TD*%
D11*
%TO.P,J1,1,Pin_1*%
%TO.N,/C*%
X160475000Y-84225000D03*
D12*
%TO.P,J1,2,Pin_2*%
%TO.N,/B*%
X160475000Y-81685000D03*
%TO.P,J1,3,Pin_3*%
%TO.N,/A*%
X160475000Y-79145000D03*
%TD*%
D17*
%TO.P,H6,1*%
%TO.N,N/C*%
X121600000Y-94800000D03*
D18*
X121600000Y-94800000D03*
%TD*%
D11*
%TO.P,J3,1,Pin_1*%
%TO.N,VDD*%
X136920000Y-53700000D03*
D12*
%TO.P,J3,2,Pin_2*%
%TO.N,/SDA*%
X139460000Y-53700000D03*
%TO.P,J3,3,Pin_3*%
%TO.N,/SCL*%
X142000000Y-53700000D03*
%TO.P,J3,4,Pin_4*%
%TO.N,GND*%
X144540000Y-53700000D03*
%TD*%
D26*
%TO.P,U2,1,VDD5V*%
%TO.N,VDD*%
X138100000Y-71760000D03*
%TO.P,U2,2,VDD3V3*%
%TO.N,+3V3*%
X138100000Y-73030000D03*
%TO.P,U2,3,OUT*%
%TO.N,unconnected-(U2-OUT-Pad3)*%
X138100000Y-74300000D03*
%TO.P,U2,4,GND*%
%TO.N,GND*%
X138100000Y-75570000D03*
%TO.P,U2,5,PGO*%
%TO.N,Net-(U2-PGO)*%
X143510000Y-75570000D03*
%TO.P,U2,6,SDA*%
%TO.N,/SDA*%
X143510000Y-74300000D03*
%TO.P,U2,7,SCL*%
%TO.N,/SCL*%
X143510000Y-73030000D03*
%TO.P,U2,8,DIR*%
%TO.N,unconnected-(U2-DIR-Pad8)*%
X143510000Y-71760000D03*
%TD*%
D27*
%TO.N,VDD*%
X143800000Y-76400000D03*
D28*
X135000000Y-76900000D03*
D27*
X142111689Y-75375747D03*
D28*
X135800000Y-70100000D03*
%TO.N,GND*%
X143699312Y-92599312D03*
X139800000Y-78600000D03*
X136700000Y-76800000D03*
X142200000Y-70200000D03*
%TO.N,/W*%
X121000000Y-67000000D03*
X119088390Y-65391655D03*
D27*
%TO.N,/SDA*%
X141600000Y-72700000D03*
%TD*%
D29*
%TO.N,VDD*%
X134100000Y-88009500D02*
X139400000Y-93309500D01*
X139137500Y-70100000D02*
X139137500Y-70722500D01*
X136920000Y-69900240D02*
X137209880Y-70190120D01*
D30*
X143837500Y-76362500D02*
X143800000Y-76400000D01*
D29*
X137209880Y-70190120D02*
X137209880Y-70869880D01*
X143687500Y-69125000D02*
X140112500Y-69125000D01*
D30*
X145600000Y-76362500D02*
X143837500Y-76362500D01*
D29*
X137209880Y-70869880D02*
X138100000Y-71760000D01*
X135800000Y-70100000D02*
X137119760Y-70100000D01*
D30*
X142111689Y-75375747D02*
X138495942Y-71760000D01*
D29*
X137119760Y-70100000D02*
X137209880Y-70190120D01*
X139137500Y-70722500D02*
X138100000Y-71760000D01*
X137209880Y-70190120D02*
X139047380Y-70190120D01*
X134100000Y-77800000D02*
X134100000Y-88009500D01*
X136920000Y-53700000D02*
X136920000Y-69900240D01*
X140112500Y-69125000D02*
X139137500Y-70100000D01*
X139575000Y-70537500D02*
X139137500Y-70100000D01*
X135000000Y-76900000D02*
X134100000Y-77800000D01*
D30*
X138495942Y-71760000D02*
X138100000Y-71760000D01*
D29*
X145700000Y-71137500D02*
X143687500Y-69125000D01*
X139047380Y-70190120D02*
X139137500Y-70100000D01*
%TO.N,GND*%
X140037500Y-78362500D02*
X139800000Y-78600000D01*
X142100000Y-70100000D02*
X142200000Y-70200000D01*
X135600000Y-75700000D02*
X136700000Y-76800000D01*
X135600000Y-75437500D02*
X135600000Y-75700000D01*
X140037500Y-77400000D02*
X140037500Y-78362500D01*
X142400000Y-93309500D02*
X142989124Y-93309500D01*
X138100000Y-75570000D02*
X135732500Y-75570000D01*
X142989124Y-93309500D02*
X143699312Y-92599312D01*
D30*
X140037500Y-77400000D02*
X139930000Y-77400000D01*
X139930000Y-77400000D02*
X138100000Y-75570000D01*
D29*
X135732500Y-75570000D02*
X135600000Y-75437500D01*
X140862500Y-70100000D02*
X142100000Y-70100000D01*
%TO.N,+3V3*%
X135990120Y-72972380D02*
X135600000Y-73362500D01*
X135990120Y-71409880D02*
X135990120Y-72972380D01*
X135932500Y-73030000D02*
X135600000Y-73362500D01*
X138100000Y-73030000D02*
X135932500Y-73030000D01*
%TO.N,/W*%
X121000000Y-75500000D02*
X121000000Y-67000000D01*
X119088390Y-65391655D02*
X119088390Y-64631610D01*
X119088390Y-64631610D02*
X119220000Y-64500000D01*
X123480000Y-77980000D02*
X121000000Y-75500000D01*
X123480000Y-81900000D02*
X123480000Y-77980000D01*
%TO.N,/V*%
X120400000Y-63500000D02*
X119420000Y-63500000D01*
X120800000Y-65075000D02*
X120800000Y-63900000D01*
X119900000Y-77900000D02*
X119900000Y-65975000D01*
X120800000Y-63900000D02*
X120400000Y-63500000D01*
X123780000Y-82900000D02*
X122325000Y-82900000D01*
X121515000Y-82090000D02*
X121515000Y-79515000D01*
X121515000Y-79515000D02*
X119900000Y-77900000D01*
X122325000Y-82900000D02*
X121515000Y-82090000D01*
X119900000Y-65975000D02*
X120800000Y-65075000D01*
%TO.N,/U*%
X119420000Y-62500000D02*
X122925000Y-62500000D01*
X122925000Y-62500000D02*
X124935000Y-64510000D01*
X124935000Y-64510000D02*
X124935000Y-69704466D01*
X125200000Y-78400000D02*
X125200000Y-83635000D01*
X121975000Y-72664466D02*
X121975000Y-75175000D01*
X124935000Y-69704466D02*
X121975000Y-72664466D01*
X124935000Y-83900000D02*
X123780000Y-83900000D01*
X121975000Y-75175000D02*
X125200000Y-78400000D01*
X125200000Y-83635000D02*
X124935000Y-83900000D01*
D30*
%TO.N,/SCL*%
X140400000Y-94484500D02*
X141115500Y-95200000D01*
X140400000Y-93309500D02*
X140400000Y-94484500D01*
D29*
X145700000Y-72862500D02*
X145532500Y-73030000D01*
D30*
X141115500Y-95200000D02*
X143007106Y-95200000D01*
X145360850Y-73030000D02*
X144900000Y-73030000D01*
D29*
X145532500Y-73030000D02*
X143510000Y-73030000D01*
D30*
X146525000Y-58225000D02*
X142000000Y-53700000D01*
X143007106Y-95200000D02*
X146925000Y-91282106D01*
X146925000Y-74594150D02*
X145360850Y-73030000D01*
X146525000Y-72037500D02*
X146525000Y-58225000D01*
X145700000Y-72862500D02*
X146525000Y-72037500D01*
X146925000Y-91282106D02*
X146925000Y-74594150D01*
D29*
%TO.N,/SDA*%
X145600000Y-74637500D02*
X145262500Y-74300000D01*
D30*
X141400000Y-94484500D02*
X141615500Y-94700000D01*
X142803000Y-74300000D02*
X141500000Y-72997000D01*
X142800000Y-94700000D02*
X146425000Y-91075000D01*
X143510000Y-74300000D02*
X142803000Y-74300000D01*
X146425000Y-91075000D02*
X146425000Y-75462500D01*
X146425000Y-75462500D02*
X145600000Y-74637500D01*
X141400000Y-93309500D02*
X141400000Y-94484500D01*
X141500000Y-72800000D02*
X141600000Y-72700000D01*
X141500000Y-72997000D02*
X141500000Y-72800000D01*
X141615500Y-94700000D02*
X142800000Y-94700000D01*
D29*
X145262500Y-74300000D02*
X143510000Y-74300000D01*
D30*
%TO.N,Net-(U2-PGO)*%
X143510000Y-75570000D02*
X143510000Y-75652500D01*
X143510000Y-75652500D02*
X141762500Y-77400000D01*
D29*
%TO.N,/B*%
X162050000Y-67150000D02*
X162050000Y-80110000D01*
X162050000Y-80110000D02*
X160475000Y-81685000D01*
X160700000Y-65800000D02*
X162050000Y-67150000D01*
%TO.N,/A*%
X160475000Y-68565000D02*
X160700000Y-68340000D01*
X160475000Y-79145000D02*
X160475000Y-68565000D01*
%TD*%
M02*
