M48
; DRILL file {KiCad 7.0.5} date Sun Jan 14 19:57:28 2024
; FORMAT={-:-/ absolute / inch / decimal}
; #@! TF.CreationDate,2024-01-14T19:57:28+08:00
; #@! TF.GenerationSoftware,Kicad,Pcbnew,7.0.5
; #@! TF.FileFunction,Plated,1,2,PTH
FMAT,2
INCH
; #@! TA.AperFunction,Plated,PTH,ViaDrill
T1C0.0118
; #@! TA.AperFunction,Plated,PTH,ViaDrill
T2C0.0236
; #@! TA.AperFunction,Plated,PTH,ComponentDrill
T3C0.0394
; #@! TA.AperFunction,Plated,PTH,ComponentDrill
T4C0.0984
; #@! TA.AperFunction,Plated,PTH,ComponentDrill
T5C0.1181
%
G90
G05
T1
X5.5748Y-2.8622
X5.5949Y-2.9675
X5.6614Y-3.0079
T2
X4.6885Y-2.5745
X4.7638Y-2.6378
X5.315Y-3.0276
X5.3465Y-2.7598
X5.3819Y-3.0236
X5.5039Y-3.0945
X5.5984Y-2.7638
X5.6575Y-3.6456
T3
X5.3906Y-2.1142
X5.4906Y-2.1142
X5.5906Y-2.1142
X5.6906Y-2.1142
X6.3179Y-3.1159
X6.3179Y-3.2159
X6.3179Y-3.3159
X6.3268Y-2.4906
X6.3268Y-2.5906
X6.3268Y-2.6906
T5
X4.7874Y-3.7323
X4.7953Y-2.1969
X6.2559Y-3.7323
X6.2598Y-2.189
T4
G00X4.9104Y-2.9016
M15
G01X5.2057Y-2.9016
M16
G05
G00X5.5433Y-2.2687
M15
G01X5.5433Y-2.564
M16
G05
G00X5.5433Y-3.2382
M15
G01X5.5433Y-3.5335
M16
G05
G00X5.8799Y-2.8898
M15
G01X6.1752Y-2.8898
M16
G05
T0
M30
