%TF.GenerationSoftware,KiCad,Pcbnew,7.0.5*%
%TF.CreationDate,2024-01-14T19:57:34+08:00*%
%TF.ProjectId,encoder,656e636f-6465-4722-9e6b-696361645f70,rev?*%
%TF.SameCoordinates,Original*%
%TF.FileFunction,Soldermask,Top*%
%TF.FilePolarity,Negative*%
%FSLAX46Y46*%
G04 Gerber Fmt 4.6, Leading zero omitted, Abs format (unit mm)*
G04 Created by KiCad (PCBNEW 7.0.5) date 2024-01-14 19:57:34*
%MOMM*%
%LPD*%
G01*
G04 APERTURE LIST*
G04 Aperture macros list*
%AMRoundRect*
0 Rectangle with rounded corners*
0 $1 Rounding radius*
0 $2 $3 $4 $5 $6 $7 $8 $9 X,Y pos of 4 corners*
0 Add a 4 corners polygon primitive as box body*
4,1,4,$2,$3,$4,$5,$6,$7,$8,$9,$2,$3,0*
0 Add four circle primitives for the rounded corners*
1,1,$1+$1,$2,$3*
1,1,$1+$1,$4,$5*
1,1,$1+$1,$6,$7*
1,1,$1+$1,$8,$9*
0 Add four rect primitives between the rounded corners*
20,1,$1+$1,$2,$3,$4,$5,0*
20,1,$1+$1,$4,$5,$6,$7,0*
20,1,$1+$1,$6,$7,$8,$9,0*
20,1,$1+$1,$8,$9,$2,$3,0*%
G04 Aperture macros list end*
%ADD10RoundRect,0.237500X0.300000X0.237500X-0.300000X0.237500X-0.300000X-0.237500X0.300000X-0.237500X0*%
%ADD11R,1.700000X1.700000*%
%ADD12O,1.700000X1.700000*%
%ADD13R,1.710000X0.600000*%
%ADD14R,2.550000X1.200000*%
%ADD15O,4.000000X12.000000*%
%ADD16O,12.000000X4.000000*%
%ADD17C,3.400000*%
%ADD18C,6.000000*%
%ADD19RoundRect,0.237500X-0.237500X0.300000X-0.237500X-0.300000X0.237500X-0.300000X0.237500X0.300000X0*%
%ADD20RoundRect,0.237500X0.044194X0.380070X-0.380070X-0.044194X-0.044194X-0.380070X0.380070X0.044194X0*%
%ADD21RoundRect,0.237500X0.237500X-0.300000X0.237500X0.300000X-0.237500X0.300000X-0.237500X-0.300000X0*%
%ADD22RoundRect,0.250000X-0.475000X0.337500X-0.475000X-0.337500X0.475000X-0.337500X0.475000X0.337500X0*%
%ADD23R,0.700000X1.750000*%
%ADD24R,1.200000X2.550000*%
%ADD25RoundRect,0.237500X-0.300000X-0.237500X0.300000X-0.237500X0.300000X0.237500X-0.300000X0.237500X0*%
%ADD26O,1.950000X0.568000*%
G04 APERTURE END LIST*
D10*
%TO.C,R1*%
X141762500Y-77400000D03*
X140037500Y-77400000D03*
%TD*%
D11*
%TO.C,J2*%
X160700000Y-63260000D03*
D12*
X160700000Y-65800000D03*
X160700000Y-68340000D03*
%TD*%
D13*
%TO.C,J6*%
X119220000Y-64500000D03*
X119220000Y-63500000D03*
X119220000Y-62500000D03*
D14*
X122960000Y-61390000D03*
X122960000Y-65610000D03*
%TD*%
D15*
%TO.C,H2*%
X140800000Y-86000000D03*
%TD*%
D16*
%TO.C,H4*%
X153100000Y-73400000D03*
%TD*%
D17*
%TO.C,H8*%
X159000000Y-55600000D03*
D18*
X159000000Y-55600000D03*
%TD*%
D19*
%TO.C,R2*%
X145700000Y-71137500D03*
X145700000Y-72862500D03*
%TD*%
D13*
%TO.C,J5*%
X123480000Y-81900000D03*
X123480000Y-82900000D03*
X123480000Y-83900000D03*
D14*
X119740000Y-85010000D03*
X119740000Y-80790000D03*
%TD*%
D15*
%TO.C,H3*%
X140800000Y-61375000D03*
%TD*%
D16*
%TO.C,H1*%
X128475000Y-73700000D03*
%TD*%
D20*
%TO.C,R4*%
X137209880Y-70190120D03*
X135990120Y-71409880D03*
%TD*%
D21*
%TO.C,R3*%
X145600000Y-76362500D03*
X145600000Y-74637500D03*
%TD*%
D17*
%TO.C,H5*%
X121800000Y-55800000D03*
D18*
X121800000Y-55800000D03*
%TD*%
D22*
%TO.C,C2*%
X135600000Y-73362500D03*
X135600000Y-75437500D03*
%TD*%
D17*
%TO.C,H7*%
X158900000Y-94800000D03*
D18*
X158900000Y-94800000D03*
%TD*%
D23*
%TO.C,J4*%
X139400000Y-93309500D03*
X140400000Y-93309500D03*
X141400000Y-93309500D03*
X142400000Y-93309500D03*
D24*
X138290000Y-97049500D03*
X143510000Y-97049500D03*
%TD*%
D25*
%TO.C,C1*%
X139137500Y-70100000D03*
X140862500Y-70100000D03*
%TD*%
D11*
%TO.C,J1*%
X160475000Y-84225000D03*
D12*
X160475000Y-81685000D03*
X160475000Y-79145000D03*
%TD*%
D17*
%TO.C,H6*%
X121600000Y-94800000D03*
D18*
X121600000Y-94800000D03*
%TD*%
D11*
%TO.C,J3*%
X136920000Y-53700000D03*
D12*
X139460000Y-53700000D03*
X142000000Y-53700000D03*
X144540000Y-53700000D03*
%TD*%
D26*
%TO.C,U2*%
X138100000Y-71760000D03*
X138100000Y-73030000D03*
X138100000Y-74300000D03*
X138100000Y-75570000D03*
X143510000Y-75570000D03*
X143510000Y-74300000D03*
X143510000Y-73030000D03*
X143510000Y-71760000D03*
%TD*%
M02*
